<svg width="20" height="20" viewBox="0 0 20 20" fill="none" xmlns="http://www.w3.org/2000/svg">
<g id="Supervised user circle" clip-path="url(#clip0_9_2192)">
<path id="Vector" d="M9.99166 1.6665C5.39166 1.6665 1.65833 5.39984 1.65833 9.99984C1.65833 14.5998 5.39166 18.3332 9.99166 18.3332C14.5917 18.3332 18.325 14.5998 18.325 9.99984C18.325 5.39984 14.5917 1.6665 9.99166 1.6665ZM13 6.94984C13.8917 6.94984 14.6083 7.6665 14.6083 8.55817C14.6083 9.44984 13.8917 10.1665 13 10.1665C12.1083 10.1665 11.3917 9.44984 11.3917 8.55817C11.3833 7.6665 12.1083 6.94984 13 6.94984ZM7.99999 5.63317C9.08333 5.63317 9.96666 6.5165 9.96666 7.59984C9.96666 8.68317 9.08333 9.5665 7.99999 9.5665C6.91666 9.5665 6.03333 8.68317 6.03333 7.59984C6.03333 6.50817 6.90833 5.63317 7.99999 5.63317ZM7.99999 13.2415V16.3665C5.99999 15.7415 4.41666 14.1998 3.71666 12.2332C4.59166 11.2998 6.77499 10.8248 7.99999 10.8248C8.44166 10.8248 8.99999 10.8915 9.58333 11.0082C8.21666 11.7332 7.99999 12.6915 7.99999 13.2415ZM9.99166 16.6665C9.76666 16.6665 9.54999 16.6582 9.33332 16.6332V13.2415C9.33332 12.0582 11.7833 11.4665 13 11.4665C13.8917 11.4665 15.4333 11.7915 16.2 12.4248C15.225 14.8998 12.8167 16.6665 9.99166 16.6665Z" fill="black"/>
</g>
<defs>
<clipPath id="clip0_9_2192">
<rect width="20" height="20" fill="white"/>
</clipPath>
</defs>
</svg>
