<svg width="88" height="89" viewBox="0 0 88 89" fill="none" xmlns="http://www.w3.org/2000/svg">
<path id="Vector" d="M88.01 64C88.01 77.24 77.25 88 64.01 88V82C73.93 82 82.01 73.92 82.01 64H88.01ZM0.00998998 24C0.00998998 10.76 10.77 0 24.01 0V6C14.09 6 6.00999 14.08 6.00999 24H0.00998998ZM28.05 13.28L9.64999 31.68C-3.23001 44.56 -3.23001 65.48 9.64999 78.36C22.53 91.24 43.45 91.24 56.33 78.36L84.61 50.08C86.57 48.12 86.57 44.96 84.61 43C82.65 41.04 79.49 41.04 77.53 43L59.85 60.68L57.01 57.84L83.17 31.68C85.13 29.72 85.13 26.56 83.17 24.6C81.21 22.64 78.05 22.64 76.09 24.6L52.77 47.92L49.93 45.08L77.49 17.52C79.45 15.56 79.45 12.4 77.49 10.44C75.53 8.48 72.37 8.48 70.41 10.44L42.85 38L40.09 35.2L62.01 13.28C63.97 11.32 63.97 8.16 62.01 6.2C60.05 4.24 56.89 4.24 54.93 6.2L24.45 36.68C29.33 42.96 28.89 52.04 23.13 57.8L20.29 54.96C24.97 50.28 24.97 42.68 20.29 38L18.89 36.6L35.17 20.32C37.13 18.36 37.13 15.2 35.17 13.24C33.17 11.32 30.01 11.32 28.05 13.28Z" fill="#01579B"/>
</svg>
